<svg xmlns="http://www.w3.org/2000/svg" width="12.21" height="11.175" viewBox="0 0 12.21 11.175">
  <path id="lamp-post" d="M10.665,0H8.254a.509.509,0,0,0-.387.178H7.2a1.976,1.976,0,0,0-1.362.6,2,2,0,0,0-.249.314A2,2,0,0,0,5.339.781a1.975,1.975,0,0,0-1.361-.6H3.308A.509.509,0,0,0,2.921,0H.51A.51.51,0,0,0,0,.51v.646H.161c0,.455.506.811,1.152.811s1.152-.356,1.152-.811h.967V.8h.526A1.356,1.356,0,0,1,5.275,2.164v9.258H4.327v.788H6.848v-.788H5.9V2.164A1.356,1.356,0,0,1,7.218.8h.525v.354h.967c0,.455.506.811,1.152.811s1.152-.356,1.152-.811h.161V.51A.51.51,0,0,0,10.665,0ZM1.313,1.687c-.472,0-.871-.243-.871-.53H2.184C2.184,1.444,1.785,1.687,1.313,1.687Zm8.549,0c-.472,0-.871-.243-.871-.53h1.742C10.733,1.444,10.334,1.687,9.862,1.687Z" transform="translate(12.21) rotate(90)" fill="#fff"/>
</svg>
